<svg width="14" height="12" viewBox="0 0 14 12" fill="none" xmlns="http://www.w3.org/2000/svg">
<path fill-rule="evenodd" clip-rule="evenodd" d="M12.9211 1.53029L5.04613 10.9053C4.9597 11.0083 4.85228 11.0913 4.73119 11.1489C4.60961 11.2066 4.47728 11.2378 4.343 11.2398H4.32738C4.29418 11.2398 4.26146 11.2383 4.22875 11.2344C4.20482 11.232 4.18138 11.2285 4.15795 11.2241C4.08519 11.211 4.0139 11.189 3.94603 11.1587C3.87718 11.1279 3.81273 11.0889 3.75365 11.0435C3.70922 11.0093 3.6682 10.9712 3.6306 10.9292L0.255602 7.17922C0.169665 7.0884 0.103259 6.98097 0.0593132 6.86428C0.0158562 6.74709 -0.00416337 6.62258 0.000719447 6.49758C0.00609054 6.37258 0.0358757 6.25002 0.0890984 6.13722C0.142321 6.02394 0.217516 5.92287 0.31029 5.83937C0.403551 5.75588 0.51195 5.69142 0.630114 5.65041C0.684313 5.63185 0.739489 5.61818 0.795641 5.60939C0.862048 5.59914 0.929919 5.59621 0.99779 5.6006C1.1223 5.60842 1.24437 5.64162 1.35619 5.69728C1.468 5.75295 1.56761 5.83058 1.64867 5.92531L4.30248 8.87355L11.4856 0.324237C11.6467 0.138201 11.8747 0.0224788 12.1203 0.00294751C12.3655 -0.0165837 12.6091 0.0615413 12.7976 0.219744C12.9861 0.378436 13.1047 0.60451 13.1282 0.849627C13.1511 1.09474 13.0769 1.33937 12.9211 1.53029Z" fill="white"/>
</svg>
