<svg width="116" height="22" viewBox="0 0 116 22" fill="none" xmlns="http://www.w3.org/2000/svg">
<path d="M5.75 20.97C5.53 21.01 5.2 21.06 4.76 21.12C4.34 21.2 3.91 21.24 3.47 21.24C3.03 21.24 2.63 21.21 2.27 21.15C1.93 21.09 1.64 20.97 1.4 20.79C1.16 20.61 0.97 20.37 0.83 20.07C0.71 19.75 0.65 19.34 0.65 18.84V1.44C0.87 1.4 1.19 1.35 1.61 1.29C2.05 1.21 2.49 1.17 2.93 1.17C3.37 1.17 3.76 1.2 4.1 1.26C4.46 1.32 4.76 1.44 5 1.62C5.24 1.8 5.42 2.05 5.54 2.37C5.68 2.67 5.75 3.07 5.75 3.57V20.97ZM16.6782 21.48C15.4982 21.48 14.3982 21.32 13.3782 21C12.3782 20.66 11.4982 20.16 10.7382 19.5C9.9982 18.84 9.4082 18.01 8.9682 17.01C8.5482 16.01 8.3382 14.84 8.3382 13.5C8.3382 12.18 8.5482 11.05 8.9682 10.11C9.4082 9.15 9.9782 8.37 10.6782 7.77C11.3782 7.15 12.1782 6.7 13.0782 6.42C13.9782 6.12 14.8982 5.97 15.8382 5.97C16.8982 5.97 17.8582 6.13 18.7182 6.45C19.5982 6.77 20.3482 7.21 20.9682 7.77C21.6082 8.33 22.0982 9 22.4382 9.78C22.7982 10.56 22.9782 11.41 22.9782 12.33C22.9782 13.01 22.7882 13.53 22.4082 13.89C22.0282 14.25 21.4982 14.48 20.8182 14.58L13.4082 15.69C13.6282 16.35 14.0782 16.85 14.7582 17.19C15.4382 17.51 16.2182 17.67 17.0982 17.67C17.9182 17.67 18.6882 17.57 19.4082 17.37C20.1482 17.15 20.7482 16.9 21.2082 16.62C21.5282 16.82 21.7982 17.1 22.0182 17.46C22.2382 17.82 22.3482 18.2 22.3482 18.6C22.3482 19.5 21.9282 20.17 21.0882 20.61C20.4482 20.95 19.7282 21.18 18.9282 21.3C18.1282 21.42 17.3782 21.48 16.6782 21.48ZM15.8382 9.69C15.3582 9.69 14.9382 9.77 14.5782 9.93C14.2382 10.09 13.9582 10.3 13.7382 10.56C13.5182 10.8 13.3482 11.08 13.2282 11.4C13.1282 11.7 13.0682 12.01 13.0482 12.33L18.1782 11.49C18.1182 11.09 17.8982 10.69 17.5182 10.29C17.1382 9.89 16.5782 9.69 15.8382 9.69ZM37.733 16.65C37.733 18.17 37.163 19.36 36.023 20.22C34.883 21.08 33.203 21.51 30.983 21.51C30.143 21.51 29.363 21.45 28.643 21.33C27.923 21.21 27.303 21.03 26.783 20.79C26.283 20.53 25.883 20.21 25.583 19.83C25.303 19.45 25.163 19 25.163 18.48C25.163 18 25.263 17.6 25.463 17.28C25.663 16.94 25.903 16.66 26.183 16.44C26.763 16.76 27.423 17.05 28.163 17.31C28.923 17.55 29.793 17.67 30.773 17.67C31.393 17.67 31.863 17.58 32.183 17.4C32.523 17.22 32.693 16.98 32.693 16.68C32.693 16.4 32.573 16.18 32.333 16.02C32.093 15.86 31.693 15.73 31.133 15.63L30.233 15.45C28.493 15.11 27.193 14.58 26.333 13.86C25.493 13.12 25.073 12.07 25.073 10.71C25.073 9.97 25.233 9.3 25.553 8.7C25.873 8.1 26.323 7.6 26.903 7.2C27.483 6.8 28.173 6.49 28.973 6.27C29.793 6.05 30.693 5.94 31.673 5.94C32.413 5.94 33.103 6 33.743 6.12C34.403 6.22 34.973 6.38 35.453 6.6C35.933 6.82 36.313 7.11 36.593 7.47C36.873 7.81 37.013 8.22 37.013 8.7C37.013 9.16 36.923 9.56 36.743 9.9C36.583 10.22 36.373 10.49 36.113 10.71C35.953 10.61 35.713 10.51 35.393 10.41C35.073 10.29 34.723 10.19 34.343 10.11C33.963 10.01 33.573 9.93 33.173 9.87C32.793 9.81 32.443 9.78 32.123 9.78C31.463 9.78 30.953 9.86 30.593 10.02C30.233 10.16 30.053 10.39 30.053 10.71C30.053 10.93 30.153 11.11 30.353 11.25C30.553 11.39 30.933 11.52 31.493 11.64L32.423 11.85C34.343 12.29 35.703 12.9 36.503 13.68C37.323 14.44 37.733 15.43 37.733 16.65ZM52.4987 16.65C52.4987 18.17 51.9287 19.36 50.7887 20.22C49.6487 21.08 47.9687 21.51 45.7487 21.51C44.9087 21.51 44.1287 21.45 43.4087 21.33C42.6887 21.21 42.0687 21.03 41.5487 20.79C41.0487 20.53 40.6487 20.21 40.3487 19.83C40.0687 19.45 39.9287 19 39.9287 18.48C39.9287 18 40.0287 17.6 40.2287 17.28C40.4287 16.94 40.6687 16.66 40.9487 16.44C41.5287 16.76 42.1887 17.05 42.9287 17.31C43.6887 17.55 44.5587 17.67 45.5387 17.67C46.1587 17.67 46.6287 17.58 46.9487 17.4C47.2887 17.22 47.4587 16.98 47.4587 16.68C47.4587 16.4 47.3387 16.18 47.0987 16.02C46.8587 15.86 46.4587 15.73 45.8987 15.63L44.9987 15.45C43.2587 15.11 41.9587 14.58 41.0987 13.86C40.2587 13.12 39.8387 12.07 39.8387 10.71C39.8387 9.97 39.9987 9.3 40.3187 8.7C40.6387 8.1 41.0887 7.6 41.6687 7.2C42.2487 6.8 42.9387 6.49 43.7387 6.27C44.5587 6.05 45.4587 5.94 46.4387 5.94C47.1787 5.94 47.8687 6 48.5087 6.12C49.1687 6.22 49.7387 6.38 50.2187 6.6C50.6987 6.82 51.0787 7.11 51.3587 7.47C51.6387 7.81 51.7787 8.22 51.7787 8.7C51.7787 9.16 51.6887 9.56 51.5087 9.9C51.3487 10.22 51.1387 10.49 50.8787 10.71C50.7187 10.61 50.4787 10.51 50.1587 10.41C49.8387 10.29 49.4887 10.19 49.1087 10.11C48.7287 10.01 48.3387 9.93 47.9387 9.87C47.5587 9.81 47.2087 9.78 46.8887 9.78C46.2287 9.78 45.7187 9.86 45.3587 10.02C44.9987 10.16 44.8187 10.39 44.8187 10.71C44.8187 10.93 44.9187 11.11 45.1187 11.25C45.3187 11.39 45.6987 11.52 46.2587 11.64L47.1887 11.85C49.1087 12.29 50.4687 12.9 51.2687 13.68C52.0887 14.44 52.4987 15.43 52.4987 16.65ZM55.0243 6.42C55.0243 5.4 55.1943 4.53 55.5343 3.81C55.8943 3.07 56.3743 2.47 56.9743 2.01C57.5743 1.53 58.2743 1.18 59.0743 0.959999C59.8943 0.739999 60.7643 0.629999 61.6843 0.629999C63.1643 0.629999 64.2543 0.829999 64.9543 1.23C65.6543 1.61 66.0043 2.27 66.0043 3.21C66.0043 3.61 65.9143 3.97 65.7343 4.29C65.5743 4.61 65.3943 4.85 65.1943 5.01C64.8143 4.91 64.4143 4.83 63.9943 4.77C63.5943 4.69 63.1243 4.65 62.5843 4.65C61.7243 4.65 61.0543 4.8 60.5743 5.1C60.0943 5.38 59.8543 5.88 59.8543 6.6V7.56H64.7743C64.8943 7.78 65.0043 8.06 65.1043 8.4C65.2243 8.72 65.2843 9.08 65.2843 9.48C65.2843 10.18 65.1243 10.69 64.8043 11.01C64.5043 11.31 64.0943 11.46 63.5743 11.46H60.1243V20.97C59.9243 21.03 59.6043 21.09 59.1643 21.15C58.7443 21.21 58.3043 21.24 57.8443 21.24C57.4043 21.24 57.0043 21.21 56.6443 21.15C56.3043 21.09 56.0143 20.97 55.7743 20.79C55.5343 20.61 55.3443 20.37 55.2043 20.07C55.0843 19.75 55.0243 19.34 55.0243 18.84V6.42ZM73.4049 3.6C73.4049 4.06 73.3949 4.73 73.3749 5.61C73.3549 6.47 73.3149 7.41 73.2549 8.43C73.1949 9.43 73.1149 10.44 73.0149 11.46C72.9149 12.46 72.7949 13.33 72.6549 14.07C72.5749 14.13 72.4549 14.19 72.2949 14.25C72.1349 14.31 71.9649 14.36 71.7849 14.4C71.6049 14.44 71.4249 14.47 71.2449 14.49C71.0649 14.51 70.9049 14.52 70.7649 14.52C70.1849 14.52 69.6949 14.43 69.2949 14.25C68.9149 14.07 68.6749 13.72 68.5749 13.2C68.4749 12.74 68.3849 12.04 68.3049 11.1C68.2449 10.16 68.1849 9.14 68.1249 8.04C68.0649 6.94 68.0149 5.85 67.9749 4.77C67.9549 3.69 67.9449 2.77 67.9449 2.01C68.3449 1.79 68.7949 1.62 69.2949 1.5C69.8149 1.36 70.3249 1.29 70.8249 1.29C71.6449 1.29 72.2749 1.48 72.7149 1.86C73.1749 2.24 73.4049 2.82 73.4049 3.6ZM67.8849 18.72C67.8849 17.9 68.1349 17.23 68.6349 16.71C69.1549 16.17 69.8649 15.9 70.7649 15.9C71.6649 15.9 72.3649 16.17 72.8649 16.71C73.3849 17.23 73.6449 17.9 73.6449 18.72C73.6449 19.54 73.3849 20.22 72.8649 20.76C72.3649 21.28 71.6649 21.54 70.7649 21.54C69.8649 21.54 69.1549 21.28 68.6349 20.76C68.1349 20.22 67.8849 19.54 67.8849 18.72ZM91.8805 13.71C91.8805 14.95 91.6905 16.06 91.3105 17.04C90.9305 18 90.3905 18.81 89.6905 19.47C89.0105 20.13 88.1905 20.63 87.2305 20.97C86.2705 21.31 85.2005 21.48 84.0205 21.48C82.8405 21.48 81.7705 21.3 80.8105 20.94C79.8505 20.58 79.0205 20.07 78.3205 19.41C77.6405 18.73 77.1105 17.91 76.7305 16.95C76.3505 15.99 76.1605 14.91 76.1605 13.71C76.1605 12.53 76.3505 11.46 76.7305 10.5C77.1105 9.54 77.6405 8.73 78.3205 8.07C79.0205 7.39 79.8505 6.87 80.8105 6.51C81.7705 6.15 82.8405 5.97 84.0205 5.97C85.2005 5.97 86.2705 6.16 87.2305 6.54C88.1905 6.9 89.0105 7.42 89.6905 8.1C90.3905 8.76 90.9305 9.57 91.3105 10.53C91.6905 11.49 91.8805 12.55 91.8805 13.71ZM81.3805 13.71C81.3805 14.93 81.6105 15.87 82.0705 16.53C82.5505 17.17 83.2105 17.49 84.0505 17.49C84.8905 17.49 85.5305 17.16 85.9705 16.5C86.4305 15.84 86.6605 14.91 86.6605 13.71C86.6605 12.51 86.4305 11.59 85.9705 10.95C85.5105 10.29 84.8605 9.96 84.0205 9.96C83.1805 9.96 82.5305 10.29 82.0705 10.95C81.6105 11.59 81.3805 12.51 81.3805 13.71ZM102.503 20.55C102.223 20.79 101.843 20.98 101.363 21.12C100.883 21.28 100.313 21.36 99.6528 21.36C98.8328 21.36 98.1228 21.24 97.5228 21C96.9228 20.78 96.5228 20.46 96.3228 20.04C96.1028 19.56 95.8428 18.8 95.5428 17.76C95.2628 16.72 94.9828 15.58 94.7028 14.34C94.4228 13.1 94.1528 11.84 93.8928 10.56C93.6528 9.28 93.4628 8.15 93.3228 7.17C93.6028 6.89 93.9728 6.65 94.4328 6.45C94.9128 6.23 95.4328 6.12 95.9928 6.12C96.6928 6.12 97.2628 6.28 97.7028 6.6C98.1628 6.9 98.4428 7.43 98.5428 8.19C98.7428 9.71 98.9128 10.97 99.0528 11.97C99.1928 12.95 99.3028 13.76 99.3828 14.4C99.4828 15.02 99.5528 15.5 99.5928 15.84C99.6528 16.16 99.7028 16.42 99.7428 16.62H99.8628C99.9228 16.3 100.023 15.84 100.163 15.24C100.323 14.62 100.503 13.92 100.703 13.14C100.903 12.36 101.113 11.52 101.333 10.62C101.553 9.7 101.773 8.79 101.993 7.89C102.393 7.67 102.783 7.5 103.163 7.38C103.563 7.26 104.053 7.2 104.633 7.2C105.333 7.2 105.933 7.31 106.433 7.53C106.933 7.75 107.253 8.09 107.393 8.55C107.633 9.43 107.863 10.29 108.083 11.13C108.303 11.95 108.503 12.72 108.683 13.44C108.863 14.14 109.023 14.77 109.163 15.33C109.303 15.87 109.403 16.3 109.463 16.62H109.613C109.833 15.08 110.043 13.48 110.243 11.82C110.463 10.16 110.663 8.47 110.843 6.75C111.203 6.53 111.583 6.37 111.983 6.27C112.383 6.17 112.783 6.12 113.183 6.12C113.883 6.12 114.463 6.27 114.923 6.57C115.383 6.87 115.613 7.39 115.613 8.13C115.613 8.45 115.563 8.93 115.463 9.57C115.363 10.21 115.233 10.93 115.073 11.73C114.913 12.53 114.723 13.37 114.503 14.25C114.303 15.13 114.093 15.98 113.873 16.8C113.673 17.62 113.473 18.36 113.273 19.02C113.093 19.68 112.933 20.19 112.793 20.55C112.513 20.79 112.083 20.98 111.503 21.12C110.923 21.28 110.303 21.36 109.643 21.36C107.963 21.36 106.973 20.94 106.673 20.1C106.553 19.74 106.403 19.29 106.223 18.75C106.043 18.19 105.853 17.58 105.653 16.92C105.453 16.26 105.263 15.58 105.083 14.88C104.903 14.16 104.753 13.47 104.633 12.81C104.493 13.51 104.323 14.24 104.123 15C103.923 15.74 103.713 16.47 103.493 17.19C103.293 17.89 103.103 18.54 102.923 19.14C102.743 19.72 102.603 20.19 102.503 20.55Z" fill="#2A54E5"/>
</svg>
